<svg xmlns="http://www.w3.org/2000/svg" width="1600" height="1020" viewBox="0 0 1600 1020" font-family="Liberation Sans, Arial, sans-serif">
<rect width="1600" height="1020" fill="#FFFFFF"/>
<rect x="20" y="320" width="1560" height="680" rx="18" fill="#FAFAFA" stroke="#2E7D32" stroke-width="3"/>
<rect x="20" y="282" width="240.79999999999998" height="30" rx="4" fill="#2E7D32"/>
<text x="30" y="303" font-size="17" fill="#FFFFFF">KIT MÓVIL - vista física</text>
<ellipse cx="800.0" cy="70.0" rx="130.0" ry="50.0" fill="#ECEFF1" stroke="#607D8B" stroke-width="2"/>
<text x="800.0" y="65.775" font-size="13" text-anchor="middle" fill="#111111"><tspan font-weight="bold">Internet</tspan></text>
<text x="800.0" y="83.325" font-size="13" text-anchor="middle" fill="#111111">red de la universidad</text>
<rect x="675" y="170" width="250" height="90" rx="6" fill="#ECEFF1" stroke="#607D8B" stroke-width="2"/>
<text x="800.0" y="203.0" font-size="12" text-anchor="middle" fill="#111111"><tspan font-weight="bold">MikroTik RB3011</tspan></text>
<text x="800.0" y="219.2" font-size="12" text-anchor="middle" fill="#111111">uplink del sitio (fuera del kit)</text>
<text x="800.0" y="235.4" font-size="12" text-anchor="middle" fill="#111111">192.168.88.0/24</text>
<rect x="60" y="390" width="340" height="160" rx="6" fill="#FFFDE7" stroke="#F9A825" stroke-width="2" stroke-dasharray="10,6"/>
<text x="230.0" y="433.7" font-size="12" text-anchor="middle" fill="#111111"><tspan font-weight="bold">UPS (lógica)</tspan> - sin equipo físico</text>
<text x="230.0" y="449.9" font-size="12" text-anchor="middle" fill="#111111">NUT dummy-ups en kvm01 simula OB/LB</text>
<text x="230.0" y="466.1" font-size="12" text-anchor="middle" fill="#111111">referencia 1000 VA/600 W: 60-90 min</text>
<text x="230.0" y="482.3" font-size="12" text-anchor="middle" fill="#111111">carga típica ≈ 70 W, pico ≈ 135 W</text>
<text x="230.0" y="498.5" font-size="12" text-anchor="middle" fill="#111111">alimenta kvm01, sw01 y el PoE de ap01</text>
<text x="230.0" y="514.7" font-size="12" text-anchor="middle" fill="#111111">las laptops usan su propia batería</text>
<rect x="460" y="420" width="680" height="100" rx="6" fill="#EEEEEE" stroke="#424242" stroke-width="2"/>
<text x="800.0" y="458.0" font-size="12" text-anchor="middle" fill="#111111"><tspan font-weight="bold">sw01</tspan> - Cisco SG350X-24</text>
<text x="800.0" y="474.2" font-size="12" text-anchor="middle" fill="#111111">gestión 10.20.10.2 (VLAN 10)</text>
<text x="800.0" y="490.4" font-size="12" text-anchor="middle" fill="#111111">puertos sin uso: shutdown, VLAN 999</text>
<rect x="1200" y="420" width="340" height="100" rx="6" fill="#FFFFFF" stroke="#9E9E9E" stroke-width="2" stroke-dasharray="10,6"/>
<text x="1370.0" y="458.0" font-size="12" text-anchor="middle" fill="#111111"><tspan font-weight="bold">Convenciones</tspan></text>
<text x="1370.0" y="474.2" font-size="12" text-anchor="middle" fill="#111111">línea continua: cable Ethernet</text>
<text x="1370.0" y="490.4" font-size="12" text-anchor="middle" fill="#111111">línea punteada: energía, Wi-Fi u opcional</text>
<rect x="60" y="660" width="340" height="150" rx="6" fill="#E8F0FE" stroke="#1565C0" stroke-width="2"/>
<text x="230.0" y="698.7" font-size="12" text-anchor="middle" fill="#111111"><tspan font-weight="bold">kvm01</tspan> - nodo principal</text>
<text x="230.0" y="714.9000000000001" font-size="12" text-anchor="middle" fill="#111111">mini PC (laptop en el perfil 3)</text>
<text x="230.0" y="731.1" font-size="12" text-anchor="middle" fill="#111111">fw01 + infra01 siempre; resto según perfil</text>
<text x="230.0" y="747.3000000000001" font-size="12" text-anchor="middle" fill="#111111">gestión 10.20.10.5</text>
<text x="230.0" y="763.5" font-size="12" text-anchor="middle" fill="#111111">SSD: SO + VMs</text>
<text x="230.0" y="779.7" font-size="12" text-anchor="middle" fill="#111111">disco USB de backups en el nodo de ops01</text>
<rect x="440" y="660" width="240" height="150" rx="6" fill="#E8F0FE" stroke="#1565C0" stroke-width="2" stroke-dasharray="10,6"/>
<text x="560.0" y="706.8000000000001" font-size="12" text-anchor="middle" fill="#111111"><tspan font-weight="bold">kvm02 / kvm03</tspan></text>
<text x="560.0" y="723.0000000000001" font-size="12" text-anchor="middle" fill="#111111">nodos opcionales</text>
<text x="560.0" y="739.2" font-size="12" text-anchor="middle" fill="#111111">laptops del grupo</text>
<text x="560.0" y="755.4000000000001" font-size="12" text-anchor="middle" fill="#111111">gestión 10.20.10.6 / .7</text>
<text x="560.0" y="771.6000000000001" font-size="12" text-anchor="middle" fill="#111111">perfiles 2 y 3</text>
<rect x="720" y="660" width="200" height="150" rx="6" fill="#FDECEA" stroke="#C62828" stroke-width="2"/>
<text x="820.0" y="714.9000000000001" font-size="12" text-anchor="middle" fill="#111111"><tspan font-weight="bold">Estaciones</tspan></text>
<text x="820.0" y="731.1000000000001" font-size="12" text-anchor="middle" fill="#111111"><tspan font-weight="bold">de gestión</tspan></text>
<text x="820.0" y="747.3000000000001" font-size="12" text-anchor="middle" fill="#111111">personal técnico</text>
<text x="820.0" y="763.5000000000001" font-size="12" text-anchor="middle" fill="#111111">VLAN 10 (solo cable)</text>
<rect x="960" y="660" width="200" height="150" rx="6" fill="#E6F4EA" stroke="#2E7D32" stroke-width="2"/>
<text x="1060.0" y="714.9000000000001" font-size="12" text-anchor="middle" fill="#111111"><tspan font-weight="bold">Estaciones</tspan></text>
<text x="1060.0" y="731.1000000000001" font-size="12" text-anchor="middle" fill="#111111"><tspan font-weight="bold">clínicas</tspan></text>
<text x="1060.0" y="747.3000000000001" font-size="12" text-anchor="middle" fill="#111111">personal de salud</text>
<text x="1060.0" y="763.5000000000001" font-size="12" text-anchor="middle" fill="#111111">VLAN 30</text>
<rect x="1200" y="660" width="340" height="150" rx="6" fill="#FEF7E0" stroke="#EF6C00" stroke-width="2"/>
<text x="1370.0" y="714.9000000000001" font-size="12" text-anchor="middle" fill="#111111"><tspan font-weight="bold">ap01</tspan> - AP multi-SSID (Wi-Fi 5/6)</text>
<text x="1370.0" y="731.1000000000001" font-size="12" text-anchor="middle" fill="#111111">gestión 10.20.10.3 (VLAN 10 nativa)</text>
<text x="1370.0" y="747.3000000000001" font-size="12" text-anchor="middle" fill="#111111">SaludMovil-Clinica → VLAN 30</text>
<text x="1370.0" y="763.5000000000001" font-size="12" text-anchor="middle" fill="#111111">SaludMovil-Comunidad → VLAN 40</text>
<rect x="1200" y="870" width="160" height="110" rx="6" fill="#E6F4EA" stroke="#2E7D32" stroke-width="2"/>
<text x="1280.0" y="913.0" font-size="12" text-anchor="middle" fill="#111111"><tspan font-weight="bold">Personal</tspan></text>
<text x="1280.0" y="929.2" font-size="12" text-anchor="middle" fill="#111111"><tspan font-weight="bold">de salud</tspan></text>
<text x="1280.0" y="945.4" font-size="12" text-anchor="middle" fill="#111111">WPA3/WPA2</text>
<rect x="1380" y="870" width="160" height="110" rx="6" fill="#FEF7E0" stroke="#EF6C00" stroke-width="2"/>
<text x="1460.0" y="913.0" font-size="12" text-anchor="middle" fill="#111111"><tspan font-weight="bold">Comunidad</tspan></text>
<text x="1460.0" y="929.2" font-size="12" text-anchor="middle" fill="#111111">dispositivos propios</text>
<text x="1460.0" y="945.4" font-size="12" text-anchor="middle" fill="#111111">portal cautivo</text>
<line x1="800.0" y1="120" x2="800.0" y2="170" stroke="#333333" stroke-width="2"/>
<line x1="800.0" y1="260" x2="800.0" y2="420" stroke="#333333" stroke-width="3"/>
<rect x="683.5" y="329.0" width="233" height="22" fill="#FFFFFF"/>
<text x="800.0" y="344.0" font-size="12" text-anchor="middle">gi1/0/3 - acceso VLAN 900 (WAN)</text>
<line x1="480.4" y1="520" x2="230.0" y2="660" stroke="#333333" stroke-width="3"/>
<rect x="316.78" y="551.0" width="177" height="22" fill="#FFFFFF"/>
<text x="405.28" y="566.0" font-size="12" text-anchor="middle">gi1/0/1 - trunk (todas)</text>
<line x1="562.0" y1="520" x2="560.0" y2="660" stroke="#333333" stroke-width="3" stroke-dasharray="8,6"/>
<rect x="461.9" y="586.0" width="198" height="22" fill="#FFFFFF"/>
<text x="560.9" y="601.0" font-size="12" text-anchor="middle">gi1/0/4-5 - trunk (10, 20)</text>
<line x1="820.4000000000001" y1="520" x2="820.0" y2="660" stroke="#333333" stroke-width="2"/>
<rect x="738.6800000000001" y="586.0" width="163" height="22" fill="#FFFFFF"/>
<text x="820.1800000000001" y="601.0" font-size="12" text-anchor="middle">gi1/0/10-11 - VLAN 10</text>
<line x1="1017.6" y1="520" x2="1060.0" y2="660" stroke="#333333" stroke-width="2"/>
<rect x="966.4200000000001" y="586.0" width="149" height="22" fill="#FFFFFF"/>
<text x="1040.92" y="601.0" font-size="12" text-anchor="middle">gi1/0/6-9 - VLAN 30</text>
<line x1="1133.2" y1="520" x2="1370.0" y2="660" stroke="#333333" stroke-width="3"/>
<rect x="1202.94" y="586.0" width="121" height="22" fill="#FFFFFF"/>
<text x="1263.44" y="601.0" font-size="12" text-anchor="middle">gi1/0/2 - trunk</text>
<line x1="400" y1="470.0" x2="460" y2="470.0" stroke="#F9A825" stroke-width="2" stroke-dasharray="8,6"/>
<line x1="230.0" y1="550" x2="230.0" y2="660" stroke="#F9A825" stroke-width="2" stroke-dasharray="8,6"/>
<rect x="155.5" y="605.0" width="149" height="22" fill="#FFFFFF"/>
<text x="230.0" y="620.0" font-size="12" text-anchor="middle">energía + USB (NUT)</text>
<line x1="1281.6" y1="810" x2="1280.0" y2="870" stroke="#EF6C00" stroke-width="2" stroke-dasharray="8,6"/>
<rect x="1230.8" y="829.0" width="100" height="22" fill="#FFFFFF"/>
<text x="1280.8" y="844.0" font-size="12" text-anchor="middle">SSID Clinica</text>
<line x1="1458.4" y1="810" x2="1460.0" y2="870" stroke="#EF6C00" stroke-width="2" stroke-dasharray="8,6"/>
<rect x="1402.2" y="829.0" width="114" height="22" fill="#FFFFFF"/>
<text x="1459.2" y="844.0" font-size="12" text-anchor="middle">SSID Comunidad</text>
</svg>